# xmcd CD database file
#
# Track frame offsets:
#	150
#	16904
#	33640
#	53362
#	70967
#	95450
#	116736
#	131231
#	190828
#	210305
#	231508
#	237554
#	263812
#	281114
#
# Disc length: 4144 seconds
#
# Revision: 0
# Processed by: cddbd v1.5.2PL0 Copyright (c) Steve Scherf et al.
# Submitted via: CDex 1.51
#
DISCID=ce102e0e
DTITLE=Colt Ford - Live From Suwannee River Jam
DYEAR=2009
DGENRE=Country
TTITLE0=Tailgate
TTITLE1=Coldbeer
TTITLE2=Mr. Goodtime
TTITLE3=Devil Went Down to Georgia
TTITLE4=Ride Through
TTITLE5=Twisted
TTITLE6=The Ride
TTITLE7=Saddle Up
TTITLE8=Never Thought
TTITLE9=Dirt Road Anthem
TTITLE10=Yeah
TTITLE11=Like Me (Sweet Home Vergion)
TTITLE12=No Trash
TTITLE13=Waffle House
EXTD=YEAR: 2009
EXTT0=
EXTT1=
EXTT2=
EXTT3=
EXTT4=
EXTT5=
EXTT6=
EXTT7=
EXTT8=
EXTT9=
EXTT10=
EXTT11=
EXTT12=
EXTT13=
PLAYORDER=
